<svg xmlns="http://www.w3.org/2000/svg" viewBox="0 0 1120 600" width="1120" height="600" role="img" aria-label="Years to save a deposit on paper, every area, 1997 and 2025">
<rect width="1120" height="600" fill="#161614"/>
<text x="64.0" y="44.0" font-family="'IBM Plex Sans', ui-sans-serif, system-ui, -apple-system, sans-serif" font-size="21" font-weight="600" fill="#f3f2ee" text-anchor="start">Years to save a deposit on paper, every area, 1997 and 2025</text>
<text x="64.0" y="70.0" font-family="'IBM Plex Sans', ui-sans-serif, system-ui, -apple-system, sans-serif" font-size="14" font-weight="400" fill="#c3c2b7" text-anchor="start">Lower-quartile house price over a tenth of lower-quartile pay: the ONS's lower-quartile ratio, one dot per local authority</text>
<line x1="134.0" y1="100.0" x2="134.0" y2="540.0" stroke="#2a2a27" stroke-width="1.0"/>
<text x="134.0" y="560.0" font-family="'IBM Plex Mono', ui-monospace, SFMono-Regular, Menlo, monospace" font-size="12" font-weight="400" fill="#9a988f" text-anchor="middle">0</text>
<line x1="218.2" y1="100.0" x2="218.2" y2="540.0" stroke="#2a2a27" stroke-width="1.0"/>
<text x="218.2" y="560.0" font-family="'IBM Plex Mono', ui-monospace, SFMono-Regular, Menlo, monospace" font-size="12" font-weight="400" fill="#9a988f" text-anchor="middle">2</text>
<line x1="302.4" y1="100.0" x2="302.4" y2="540.0" stroke="#2a2a27" stroke-width="1.0"/>
<text x="302.4" y="560.0" font-family="'IBM Plex Mono', ui-monospace, SFMono-Regular, Menlo, monospace" font-size="12" font-weight="400" fill="#9a988f" text-anchor="middle">4</text>
<line x1="386.5" y1="100.0" x2="386.5" y2="540.0" stroke="#2a2a27" stroke-width="1.0"/>
<text x="386.5" y="560.0" font-family="'IBM Plex Mono', ui-monospace, SFMono-Regular, Menlo, monospace" font-size="12" font-weight="400" fill="#9a988f" text-anchor="middle">6</text>
<line x1="470.7" y1="100.0" x2="470.7" y2="540.0" stroke="#2a2a27" stroke-width="1.0"/>
<text x="470.7" y="560.0" font-family="'IBM Plex Mono', ui-monospace, SFMono-Regular, Menlo, monospace" font-size="12" font-weight="400" fill="#9a988f" text-anchor="middle">8</text>
<line x1="554.9" y1="100.0" x2="554.9" y2="540.0" stroke="#2a2a27" stroke-width="1.0"/>
<text x="554.9" y="560.0" font-family="'IBM Plex Mono', ui-monospace, SFMono-Regular, Menlo, monospace" font-size="12" font-weight="400" fill="#9a988f" text-anchor="middle">10</text>
<line x1="639.1" y1="100.0" x2="639.1" y2="540.0" stroke="#2a2a27" stroke-width="1.0"/>
<text x="639.1" y="560.0" font-family="'IBM Plex Mono', ui-monospace, SFMono-Regular, Menlo, monospace" font-size="12" font-weight="400" fill="#9a988f" text-anchor="middle">12</text>
<line x1="723.3" y1="100.0" x2="723.3" y2="540.0" stroke="#2a2a27" stroke-width="1.0"/>
<text x="723.3" y="560.0" font-family="'IBM Plex Mono', ui-monospace, SFMono-Regular, Menlo, monospace" font-size="12" font-weight="400" fill="#9a988f" text-anchor="middle">14</text>
<line x1="807.5" y1="100.0" x2="807.5" y2="540.0" stroke="#2a2a27" stroke-width="1.0"/>
<text x="807.5" y="560.0" font-family="'IBM Plex Mono', ui-monospace, SFMono-Regular, Menlo, monospace" font-size="12" font-weight="400" fill="#9a988f" text-anchor="middle">16</text>
<line x1="891.6" y1="100.0" x2="891.6" y2="540.0" stroke="#2a2a27" stroke-width="1.0"/>
<text x="891.6" y="560.0" font-family="'IBM Plex Mono', ui-monospace, SFMono-Regular, Menlo, monospace" font-size="12" font-weight="400" fill="#9a988f" text-anchor="middle">18</text>
<line x1="975.8" y1="100.0" x2="975.8" y2="540.0" stroke="#2a2a27" stroke-width="1.0"/>
<text x="975.8" y="560.0" font-family="'IBM Plex Mono', ui-monospace, SFMono-Regular, Menlo, monospace" font-size="12" font-weight="400" fill="#9a988f" text-anchor="middle">20</text>
<line x1="1060.0" y1="100.0" x2="1060.0" y2="540.0" stroke="#2a2a27" stroke-width="1.0"/>
<text x="1060.0" y="560.0" font-family="'IBM Plex Mono', ui-monospace, SFMono-Regular, Menlo, monospace" font-size="12" font-weight="400" fill="#9a988f" text-anchor="middle">22</text>
<text x="1060.0" y="580.0" font-family="'IBM Plex Sans', ui-sans-serif, system-ui, -apple-system, sans-serif" font-size="12" font-weight="400" fill="#9a988f" text-anchor="end">years</text>
<text x="64.0" y="294.0" font-family="'IBM Plex Mono', ui-monospace, SFMono-Regular, Menlo, monospace" font-size="15" font-weight="600" fill="#f3f2ee" text-anchor="start">1997</text>
<circle cx="205.7" cy="297.6" r="2.4" fill="#4b4a46"/>
<circle cx="206.4" cy="292.2" r="2.4" fill="#4b4a46"/>
<circle cx="213.8" cy="297.6" r="2.4" fill="#4b4a46"/>
<circle cx="217.0" cy="292.2" r="2.4" fill="#4b4a46"/>
<circle cx="219.7" cy="297.6" r="2.4" fill="#4b4a46"/>
<circle cx="220.0" cy="286.8" r="2.4" fill="#4b4a46"/>
<circle cx="220.6" cy="281.4" r="2.4" fill="#4b4a46"/>
<circle cx="227.1" cy="297.6" r="2.4" fill="#4b4a46"/>
<circle cx="227.4" cy="292.2" r="2.4" fill="#4b4a46"/>
<circle cx="228.5" cy="286.8" r="2.4" fill="#4b4a46"/>
<circle cx="230.3" cy="281.4" r="2.4" fill="#4b4a46"/>
<circle cx="233.6" cy="297.6" r="2.4" fill="#4b4a46"/>
<circle cx="233.6" cy="292.2" r="2.4" fill="#4b4a46"/>
<circle cx="237.9" cy="286.8" r="2.4" fill="#4b4a46"/>
<circle cx="239.4" cy="297.6" r="2.4" fill="#4b4a46"/>
<circle cx="240.1" cy="292.2" r="2.4" fill="#4b4a46"/>
<circle cx="240.8" cy="281.4" r="2.4" fill="#4b4a46"/>
<circle cx="242.2" cy="276.0" r="2.4" fill="#4b4a46"/>
<circle cx="243.1" cy="270.6" r="2.4" fill="#4b4a46"/>
<circle cx="243.1" cy="265.2" r="2.4" fill="#4b4a46"/>
<circle cx="243.9" cy="286.8" r="2.4" fill="#4b4a46"/>
<circle cx="244.6" cy="259.8" r="2.4" fill="#4b4a46"/>
<circle cx="244.7" cy="254.4" r="2.4" fill="#4b4a46"/>
<circle cx="246.1" cy="297.6" r="2.4" fill="#4b4a46"/>
<circle cx="246.8" cy="292.2" r="2.4" fill="#4b4a46"/>
<circle cx="247.0" cy="281.4" r="2.4" fill="#4b4a46"/>
<circle cx="247.4" cy="249.0" r="2.4" fill="#4b4a46"/>
<circle cx="247.5" cy="243.6" r="2.4" fill="#4b4a46"/>
<circle cx="247.6" cy="276.0" r="2.4" fill="#4b4a46"/>
<circle cx="248.1" cy="238.2" r="2.4" fill="#4b4a46"/>
<circle cx="248.7" cy="270.6" r="2.4" fill="#4b4a46"/>
<circle cx="249.8" cy="286.8" r="2.4" fill="#4b4a46"/>
<circle cx="250.9" cy="265.2" r="2.4" fill="#4b4a46"/>
<circle cx="250.9" cy="259.8" r="2.4" fill="#4b4a46"/>
<circle cx="250.9" cy="254.4" r="2.4" fill="#4b4a46"/>
<circle cx="251.3" cy="232.8" r="2.4" fill="#4b4a46"/>
<circle cx="251.4" cy="227.4" r="2.4" fill="#4b4a46"/>
<circle cx="251.9" cy="297.6" r="2.4" fill="#4b4a46"/>
<circle cx="252.4" cy="292.2" r="2.4" fill="#4b4a46"/>
<circle cx="253.7" cy="281.4" r="2.4" fill="#4b4a46"/>
<circle cx="253.8" cy="276.0" r="2.4" fill="#4b4a46"/>
<circle cx="254.1" cy="270.6" r="2.4" fill="#4b4a46"/>
<circle cx="254.3" cy="249.0" r="2.4" fill="#4b4a46"/>
<circle cx="254.5" cy="243.6" r="2.4" fill="#4b4a46"/>
<circle cx="254.7" cy="238.2" r="2.4" fill="#4b4a46"/>
<circle cx="254.9" cy="222.0" r="2.4" fill="#4b4a46"/>
<circle cx="255.2" cy="286.8" r="2.4" fill="#4b4a46"/>
<circle cx="256.1" cy="216.6" r="2.4" fill="#4b4a46"/>
<circle cx="256.9" cy="265.2" r="2.4" fill="#4b4a46"/>
<circle cx="257.0" cy="259.8" r="2.4" fill="#4b4a46"/>
<circle cx="257.0" cy="254.4" r="2.4" fill="#4b4a46"/>
<circle cx="257.0" cy="232.8" r="2.4" fill="#4b4a46"/>
<circle cx="258.4" cy="297.6" r="2.4" fill="#4b4a46"/>
<circle cx="259.0" cy="292.2" r="2.4" fill="#4b4a46"/>
<circle cx="259.1" cy="281.4" r="2.4" fill="#4b4a46"/>
<circle cx="259.1" cy="227.4" r="2.4" fill="#4b4a46"/>
<circle cx="259.2" cy="211.2" r="2.4" fill="#4b4a46"/>
<circle cx="259.4" cy="276.0" r="2.4" fill="#4b4a46"/>
<circle cx="259.4" cy="205.8" r="2.4" fill="#4b4a46"/>
<circle cx="259.5" cy="200.4" r="2.4" fill="#4b4a46"/>
<circle cx="259.9" cy="270.6" r="2.4" fill="#4b4a46"/>
<circle cx="260.2" cy="249.0" r="2.4" fill="#4b4a46"/>
<circle cx="260.6" cy="243.6" r="2.4" fill="#4b4a46"/>
<circle cx="261.6" cy="286.8" r="2.4" fill="#4b4a46"/>
<circle cx="261.8" cy="238.2" r="2.4" fill="#4b4a46"/>
<circle cx="262.1" cy="222.0" r="2.4" fill="#4b4a46"/>
<circle cx="262.2" cy="216.6" r="2.4" fill="#4b4a46"/>
<circle cx="262.3" cy="265.2" r="2.4" fill="#4b4a46"/>
<circle cx="262.5" cy="259.8" r="2.4" fill="#4b4a46"/>
<circle cx="263.1" cy="254.4" r="2.4" fill="#4b4a46"/>
<circle cx="264.0" cy="297.6" r="2.4" fill="#4b4a46"/>
<circle cx="265.4" cy="292.2" r="2.4" fill="#4b4a46"/>
<circle cx="265.6" cy="281.4" r="2.4" fill="#4b4a46"/>
<circle cx="266.0" cy="276.0" r="2.4" fill="#4b4a46"/>
<circle cx="267.1" cy="286.8" r="2.4" fill="#4b4a46"/>
<circle cx="268.5" cy="270.6" r="2.4" fill="#4b4a46"/>
<circle cx="268.7" cy="265.2" r="2.4" fill="#4b4a46"/>
<circle cx="269.0" cy="259.8" r="2.4" fill="#4b4a46"/>
<circle cx="269.0" cy="254.4" r="2.4" fill="#4b4a46"/>
<circle cx="269.0" cy="249.0" r="2.4" fill="#4b4a46"/>
<circle cx="269.3" cy="243.6" r="2.4" fill="#4b4a46"/>
<circle cx="269.3" cy="238.2" r="2.4" fill="#4b4a46"/>
<circle cx="269.4" cy="232.8" r="2.4" fill="#4b4a46"/>
<circle cx="269.4" cy="297.6" r="2.4" fill="#4b4a46"/>
<circle cx="270.7" cy="227.4" r="2.4" fill="#4b4a46"/>
<circle cx="270.8" cy="292.2" r="2.4" fill="#4b4a46"/>
<circle cx="270.9" cy="222.0" r="2.4" fill="#4b4a46"/>
<circle cx="271.6" cy="281.4" r="2.4" fill="#4b4a46"/>
<circle cx="271.9" cy="276.0" r="2.4" fill="#4b4a46"/>
<circle cx="272.6" cy="286.8" r="2.4" fill="#4b4a46"/>
<circle cx="272.8" cy="216.6" r="2.4" fill="#4b4a46"/>
<circle cx="272.8" cy="211.2" r="2.4" fill="#4b4a46"/>
<circle cx="272.9" cy="205.8" r="2.4" fill="#4b4a46"/>
<circle cx="273.1" cy="200.4" r="2.4" fill="#4b4a46"/>
<circle cx="273.5" cy="195.0" r="2.4" fill="#4b4a46"/>
<circle cx="273.9" cy="270.6" r="2.4" fill="#4b4a46"/>
<circle cx="274.0" cy="189.6" r="2.4" fill="#4b4a46"/>
<circle cx="274.1" cy="184.2" r="2.4" fill="#4b4a46"/>
<circle cx="274.3" cy="265.2" r="2.4" fill="#4b4a46"/>
<circle cx="275.0" cy="297.6" r="2.4" fill="#4b4a46"/>
<circle cx="275.0" cy="259.8" r="2.4" fill="#4b4a46"/>
<circle cx="275.1" cy="254.4" r="2.4" fill="#4b4a46"/>
<circle cx="276.0" cy="249.0" r="2.4" fill="#4b4a46"/>
<circle cx="276.7" cy="292.2" r="2.4" fill="#4b4a46"/>
<circle cx="276.8" cy="243.6" r="2.4" fill="#4b4a46"/>
<circle cx="277.3" cy="281.4" r="2.4" fill="#4b4a46"/>
<circle cx="277.3" cy="276.0" r="2.4" fill="#4b4a46"/>
<circle cx="277.3" cy="238.2" r="2.4" fill="#4b4a46"/>
<circle cx="277.7" cy="232.8" r="2.4" fill="#4b4a46"/>
<circle cx="277.8" cy="227.4" r="2.4" fill="#4b4a46"/>
<circle cx="277.8" cy="222.0" r="2.4" fill="#4b4a46"/>
<circle cx="278.0" cy="286.8" r="2.4" fill="#4b4a46"/>
<circle cx="278.4" cy="216.6" r="2.4" fill="#4b4a46"/>
<circle cx="278.8" cy="211.2" r="2.4" fill="#4b4a46"/>
<circle cx="279.3" cy="205.8" r="2.4" fill="#4b4a46"/>
<circle cx="280.0" cy="270.6" r="2.4" fill="#4b4a46"/>
<circle cx="281.5" cy="297.6" r="2.4" fill="#4b4a46"/>
<circle cx="281.9" cy="265.2" r="2.4" fill="#4b4a46"/>
<circle cx="282.0" cy="259.8" r="2.4" fill="#4b4a46"/>
<circle cx="282.3" cy="292.2" r="2.4" fill="#4b4a46"/>
<circle cx="282.4" cy="254.4" r="2.4" fill="#4b4a46"/>
<circle cx="282.7" cy="281.4" r="2.4" fill="#4b4a46"/>
<circle cx="283.1" cy="276.0" r="2.4" fill="#4b4a46"/>
<circle cx="284.1" cy="286.8" r="2.4" fill="#4b4a46"/>
<circle cx="284.1" cy="249.0" r="2.4" fill="#4b4a46"/>
<circle cx="284.2" cy="243.6" r="2.4" fill="#4b4a46"/>
<circle cx="284.4" cy="238.2" r="2.4" fill="#4b4a46"/>
<circle cx="284.4" cy="232.8" r="2.4" fill="#4b4a46"/>
<circle cx="284.7" cy="227.4" r="2.4" fill="#4b4a46"/>
<circle cx="285.1" cy="222.0" r="2.4" fill="#4b4a46"/>
<circle cx="285.5" cy="270.6" r="2.4" fill="#4b4a46"/>
<circle cx="285.5" cy="216.6" r="2.4" fill="#4b4a46"/>
<circle cx="285.5" cy="211.2" r="2.4" fill="#4b4a46"/>
<circle cx="285.7" cy="205.8" r="2.4" fill="#4b4a46"/>
<circle cx="285.7" cy="200.4" r="2.4" fill="#4b4a46"/>
<circle cx="287.2" cy="297.6" r="2.4" fill="#4b4a46"/>
<circle cx="287.6" cy="265.2" r="2.4" fill="#4b4a46"/>
<circle cx="287.6" cy="259.8" r="2.4" fill="#4b4a46"/>
<circle cx="288.2" cy="292.2" r="2.4" fill="#4b4a46"/>
<circle cx="289.5" cy="286.8" r="2.4" fill="#4b4a46"/>
<circle cx="289.9" cy="281.4" r="2.4" fill="#4b4a46"/>
<circle cx="290.3" cy="276.0" r="2.4" fill="#4b4a46"/>
<circle cx="290.3" cy="254.4" r="2.4" fill="#4b4a46"/>
<circle cx="290.5" cy="249.0" r="2.4" fill="#4b4a46"/>
<circle cx="290.9" cy="270.6" r="2.4" fill="#4b4a46"/>
<circle cx="291.7" cy="243.6" r="2.4" fill="#4b4a46"/>
<circle cx="292.0" cy="238.2" r="2.4" fill="#4b4a46"/>
<circle cx="292.2" cy="232.8" r="2.4" fill="#4b4a46"/>
<circle cx="292.6" cy="227.4" r="2.4" fill="#4b4a46"/>
<circle cx="293.2" cy="297.6" r="2.4" fill="#4b4a46"/>
<circle cx="293.2" cy="265.2" r="2.4" fill="#4b4a46"/>
<circle cx="293.4" cy="259.8" r="2.4" fill="#4b4a46"/>
<circle cx="293.6" cy="292.2" r="2.4" fill="#4b4a46"/>
<circle cx="293.8" cy="222.0" r="2.4" fill="#4b4a46"/>
<circle cx="294.4" cy="216.6" r="2.4" fill="#4b4a46"/>
<circle cx="294.7" cy="211.2" r="2.4" fill="#4b4a46"/>
<circle cx="294.9" cy="286.8" r="2.4" fill="#4b4a46"/>
<circle cx="295.0" cy="205.8" r="2.4" fill="#4b4a46"/>
<circle cx="295.1" cy="200.4" r="2.4" fill="#4b4a46"/>
<circle cx="295.8" cy="281.4" r="2.4" fill="#4b4a46"/>
<circle cx="296.1" cy="276.0" r="2.4" fill="#4b4a46"/>
<circle cx="296.1" cy="254.4" r="2.4" fill="#4b4a46"/>
<circle cx="296.7" cy="270.6" r="2.4" fill="#4b4a46"/>
<circle cx="296.9" cy="249.0" r="2.4" fill="#4b4a46"/>
<circle cx="297.1" cy="243.6" r="2.4" fill="#4b4a46"/>
<circle cx="297.3" cy="195.0" r="2.4" fill="#4b4a46"/>
<circle cx="297.6" cy="238.2" r="2.4" fill="#4b4a46"/>
<circle cx="298.1" cy="232.8" r="2.4" fill="#4b4a46"/>
<circle cx="299.2" cy="297.6" r="2.4" fill="#4b4a46"/>
<circle cx="299.2" cy="292.2" r="2.4" fill="#4b4a46"/>
<circle cx="299.3" cy="265.2" r="2.4" fill="#4b4a46"/>
<circle cx="299.9" cy="259.8" r="2.4" fill="#4b4a46"/>
<circle cx="300.1" cy="227.4" r="2.4" fill="#4b4a46"/>
<circle cx="300.6" cy="286.8" r="2.4" fill="#4b4a46"/>
<circle cx="301.3" cy="281.4" r="2.4" fill="#4b4a46"/>
<circle cx="301.4" cy="222.0" r="2.4" fill="#4b4a46"/>
<circle cx="301.4" cy="216.6" r="2.4" fill="#4b4a46"/>
<circle cx="301.7" cy="276.0" r="2.4" fill="#4b4a46"/>
<circle cx="301.9" cy="254.4" r="2.4" fill="#4b4a46"/>
<circle cx="302.1" cy="211.2" r="2.4" fill="#4b4a46"/>
<circle cx="302.1" cy="270.6" r="2.4" fill="#4b4a46"/>
<circle cx="302.4" cy="249.0" r="2.4" fill="#4b4a46"/>
<circle cx="302.6" cy="243.6" r="2.4" fill="#4b4a46"/>
<circle cx="302.7" cy="205.8" r="2.4" fill="#4b4a46"/>
<circle cx="303.1" cy="238.2" r="2.4" fill="#4b4a46"/>
<circle cx="303.3" cy="200.4" r="2.4" fill="#4b4a46"/>
<circle cx="304.7" cy="297.6" r="2.4" fill="#4b4a46"/>
<circle cx="304.8" cy="292.2" r="2.4" fill="#4b4a46"/>
<circle cx="306.1" cy="286.8" r="2.4" fill="#4b4a46"/>
<circle cx="306.8" cy="281.4" r="2.4" fill="#4b4a46"/>
<circle cx="307.1" cy="265.2" r="2.4" fill="#4b4a46"/>
<circle cx="308.9" cy="276.0" r="2.4" fill="#4b4a46"/>
<circle cx="309.1" cy="270.6" r="2.4" fill="#4b4a46"/>
<circle cx="310.0" cy="259.8" r="2.4" fill="#4b4a46"/>
<circle cx="310.8" cy="297.6" r="2.4" fill="#4b4a46"/>
<circle cx="311.1" cy="292.2" r="2.4" fill="#4b4a46"/>
<circle cx="311.7" cy="286.8" r="2.4" fill="#4b4a46"/>
<circle cx="314.0" cy="281.4" r="2.4" fill="#4b4a46"/>
<circle cx="314.3" cy="276.0" r="2.4" fill="#4b4a46"/>
<circle cx="314.7" cy="270.6" r="2.4" fill="#4b4a46"/>
<circle cx="315.5" cy="265.2" r="2.4" fill="#4b4a46"/>
<circle cx="317.1" cy="297.6" r="2.4" fill="#4b4a46"/>
<circle cx="317.7" cy="292.2" r="2.4" fill="#4b4a46"/>
<circle cx="317.8" cy="286.8" r="2.4" fill="#4b4a46"/>
<circle cx="318.0" cy="259.8" r="2.4" fill="#4b4a46"/>
<circle cx="319.0" cy="254.4" r="2.4" fill="#4b4a46"/>
<circle cx="319.2" cy="249.0" r="2.4" fill="#4b4a46"/>
<circle cx="320.2" cy="281.4" r="2.4" fill="#4b4a46"/>
<circle cx="320.5" cy="276.0" r="2.4" fill="#4b4a46"/>
<circle cx="320.7" cy="270.6" r="2.4" fill="#4b4a46"/>
<circle cx="320.9" cy="243.6" r="2.4" fill="#4b4a46"/>
<circle cx="321.0" cy="265.2" r="2.4" fill="#4b4a46"/>
<circle cx="321.6" cy="238.2" r="2.4" fill="#4b4a46"/>
<circle cx="322.1" cy="232.8" r="2.4" fill="#4b4a46"/>
<circle cx="322.2" cy="227.4" r="2.4" fill="#4b4a46"/>
<circle cx="322.3" cy="222.0" r="2.4" fill="#4b4a46"/>
<circle cx="322.5" cy="297.6" r="2.4" fill="#4b4a46"/>
<circle cx="322.6" cy="216.6" r="2.4" fill="#4b4a46"/>
<circle cx="323.2" cy="292.2" r="2.4" fill="#4b4a46"/>
<circle cx="323.3" cy="286.8" r="2.4" fill="#4b4a46"/>
<circle cx="323.5" cy="259.8" r="2.4" fill="#4b4a46"/>
<circle cx="323.5" cy="211.2" r="2.4" fill="#4b4a46"/>
<circle cx="324.5" cy="254.4" r="2.4" fill="#4b4a46"/>
<circle cx="326.4" cy="281.4" r="2.4" fill="#4b4a46"/>
<circle cx="327.0" cy="276.0" r="2.4" fill="#4b4a46"/>
<circle cx="327.1" cy="270.6" r="2.4" fill="#4b4a46"/>
<circle cx="327.4" cy="265.2" r="2.4" fill="#4b4a46"/>
<circle cx="328.9" cy="297.6" r="2.4" fill="#4b4a46"/>
<circle cx="329.0" cy="292.2" r="2.4" fill="#4b4a46"/>
<circle cx="330.0" cy="286.8" r="2.4" fill="#4b4a46"/>
<circle cx="330.2" cy="259.8" r="2.4" fill="#4b4a46"/>
<circle cx="330.4" cy="254.4" r="2.4" fill="#4b4a46"/>
<circle cx="331.2" cy="249.0" r="2.4" fill="#4b4a46"/>
<circle cx="331.6" cy="243.6" r="2.4" fill="#4b4a46"/>
<circle cx="331.8" cy="281.4" r="2.4" fill="#4b4a46"/>
<circle cx="334.4" cy="297.6" r="2.4" fill="#4b4a46"/>
<circle cx="335.0" cy="292.2" r="2.4" fill="#4b4a46"/>
<circle cx="335.3" cy="276.0" r="2.4" fill="#4b4a46"/>
<circle cx="337.2" cy="286.8" r="2.4" fill="#4b4a46"/>
<circle cx="337.4" cy="281.4" r="2.4" fill="#4b4a46"/>
<circle cx="338.8" cy="270.6" r="2.4" fill="#4b4a46"/>
<circle cx="338.8" cy="265.2" r="2.4" fill="#4b4a46"/>
<circle cx="339.8" cy="297.6" r="2.4" fill="#4b4a46"/>
<circle cx="340.9" cy="292.2" r="2.4" fill="#4b4a46"/>
<circle cx="342.7" cy="286.8" r="2.4" fill="#4b4a46"/>
<circle cx="343.0" cy="281.4" r="2.4" fill="#4b4a46"/>
<circle cx="343.1" cy="276.0" r="2.4" fill="#4b4a46"/>
<circle cx="343.5" cy="259.8" r="2.4" fill="#4b4a46"/>
<circle cx="344.5" cy="270.6" r="2.4" fill="#4b4a46"/>
<circle cx="344.5" cy="265.2" r="2.4" fill="#4b4a46"/>
<circle cx="346.0" cy="297.6" r="2.4" fill="#4b4a46"/>
<circle cx="347.5" cy="292.2" r="2.4" fill="#4b4a46"/>
<circle cx="347.5" cy="254.4" r="2.4" fill="#4b4a46"/>
<circle cx="348.6" cy="286.8" r="2.4" fill="#4b4a46"/>
<circle cx="349.0" cy="281.4" r="2.4" fill="#4b4a46"/>
<circle cx="349.1" cy="276.0" r="2.4" fill="#4b4a46"/>
<circle cx="350.2" cy="270.6" r="2.4" fill="#4b4a46"/>
<circle cx="350.6" cy="265.2" r="2.4" fill="#4b4a46"/>
<circle cx="350.9" cy="259.8" r="2.4" fill="#4b4a46"/>
<circle cx="351.5" cy="297.6" r="2.4" fill="#4b4a46"/>
<circle cx="352.3" cy="249.0" r="2.4" fill="#4b4a46"/>
<circle cx="353.3" cy="292.2" r="2.4" fill="#4b4a46"/>
<circle cx="355.0" cy="286.8" r="2.4" fill="#4b4a46"/>
<circle cx="355.2" cy="281.4" r="2.4" fill="#4b4a46"/>
<circle cx="355.4" cy="276.0" r="2.4" fill="#4b4a46"/>
<circle cx="356.8" cy="270.6" r="2.4" fill="#4b4a46"/>
<circle cx="357.5" cy="297.6" r="2.4" fill="#4b4a46"/>
<circle cx="359.1" cy="292.2" r="2.4" fill="#4b4a46"/>
<circle cx="361.3" cy="286.8" r="2.4" fill="#4b4a46"/>
<circle cx="361.4" cy="281.4" r="2.4" fill="#4b4a46"/>
<circle cx="361.5" cy="276.0" r="2.4" fill="#4b4a46"/>
<circle cx="364.6" cy="297.6" r="2.4" fill="#4b4a46"/>
<circle cx="365.2" cy="292.2" r="2.4" fill="#4b4a46"/>
<circle cx="366.1" cy="270.6" r="2.4" fill="#4b4a46"/>
<circle cx="372.0" cy="297.6" r="2.4" fill="#4b4a46"/>
<circle cx="372.7" cy="292.2" r="2.4" fill="#4b4a46"/>
<circle cx="373.5" cy="286.8" r="2.4" fill="#4b4a46"/>
<circle cx="376.4" cy="281.4" r="2.4" fill="#4b4a46"/>
<circle cx="376.5" cy="276.0" r="2.4" fill="#4b4a46"/>
<circle cx="380.2" cy="297.6" r="2.4" fill="#4b4a46"/>
<circle cx="381.2" cy="292.2" r="2.4" fill="#4b4a46"/>
<circle cx="384.4" cy="286.8" r="2.4" fill="#4b4a46"/>
<circle cx="385.1" cy="281.4" r="2.4" fill="#4b4a46"/>
<circle cx="385.2" cy="276.0" r="2.4" fill="#4b4a46"/>
<circle cx="390.7" cy="297.6" r="2.4" fill="#4b4a46"/>
<circle cx="394.1" cy="292.2" r="2.4" fill="#4b4a46"/>
<circle cx="403.3" cy="297.6" r="2.4" fill="#4b4a46"/>
<circle cx="423.7" cy="297.6" r="2.4" fill="#4b4a46"/>
<circle cx="557.1" cy="297.6" r="2.4" fill="#3fb8a5"/>
<text x="1060.0" y="130.0" font-family="'IBM Plex Sans', ui-sans-serif, system-ui, -apple-system, sans-serif" font-size="13" font-weight="600" fill="#3fb8a5" text-anchor="end">1 of 289 at ten years or more</text>
<text x="64.0" y="524.0" font-family="'IBM Plex Mono', ui-monospace, SFMono-Regular, Menlo, monospace" font-size="15" font-weight="600" fill="#f3f2ee" text-anchor="start">2025</text>
<circle cx="278.2" cy="527.6" r="2.4" fill="#4b4a46"/>
<circle cx="280.5" cy="522.2" r="2.4" fill="#4b4a46"/>
<circle cx="281.9" cy="516.8" r="2.4" fill="#4b4a46"/>
<circle cx="291.5" cy="527.6" r="2.4" fill="#4b4a46"/>
<circle cx="296.1" cy="522.2" r="2.4" fill="#4b4a46"/>
<circle cx="299.1" cy="527.6" r="2.4" fill="#4b4a46"/>
<circle cx="302.5" cy="522.2" r="2.4" fill="#4b4a46"/>
<circle cx="307.7" cy="527.6" r="2.4" fill="#4b4a46"/>
<circle cx="308.0" cy="522.2" r="2.4" fill="#4b4a46"/>
<circle cx="308.7" cy="516.8" r="2.4" fill="#4b4a46"/>
<circle cx="309.4" cy="511.4" r="2.4" fill="#4b4a46"/>
<circle cx="313.4" cy="527.6" r="2.4" fill="#4b4a46"/>
<circle cx="315.3" cy="522.2" r="2.4" fill="#4b4a46"/>
<circle cx="317.9" cy="516.8" r="2.4" fill="#4b4a46"/>
<circle cx="318.0" cy="511.4" r="2.4" fill="#4b4a46"/>
<circle cx="322.0" cy="527.6" r="2.4" fill="#4b4a46"/>
<circle cx="322.3" cy="522.2" r="2.4" fill="#4b4a46"/>
<circle cx="324.2" cy="516.8" r="2.4" fill="#4b4a46"/>
<circle cx="325.1" cy="511.4" r="2.4" fill="#4b4a46"/>
<circle cx="325.8" cy="506.0" r="2.4" fill="#4b4a46"/>
<circle cx="329.5" cy="527.6" r="2.4" fill="#4b4a46"/>
<circle cx="331.0" cy="522.2" r="2.4" fill="#4b4a46"/>
<circle cx="331.2" cy="516.8" r="2.4" fill="#4b4a46"/>
<circle cx="335.0" cy="527.6" r="2.4" fill="#4b4a46"/>
<circle cx="337.0" cy="522.2" r="2.4" fill="#4b4a46"/>
<circle cx="338.4" cy="516.8" r="2.4" fill="#4b4a46"/>
<circle cx="338.6" cy="511.4" r="2.4" fill="#4b4a46"/>
<circle cx="338.8" cy="506.0" r="2.4" fill="#4b4a46"/>
<circle cx="342.6" cy="527.6" r="2.4" fill="#4b4a46"/>
<circle cx="347.1" cy="522.2" r="2.4" fill="#4b4a46"/>
<circle cx="347.8" cy="516.8" r="2.4" fill="#4b4a46"/>
<circle cx="349.6" cy="527.6" r="2.4" fill="#4b4a46"/>
<circle cx="350.1" cy="511.4" r="2.4" fill="#4b4a46"/>
<circle cx="351.9" cy="506.0" r="2.4" fill="#4b4a46"/>
<circle cx="352.0" cy="500.6" r="2.4" fill="#4b4a46"/>
<circle cx="352.1" cy="495.2" r="2.4" fill="#4b4a46"/>
<circle cx="354.6" cy="522.2" r="2.4" fill="#4b4a46"/>
<circle cx="357.0" cy="527.6" r="2.4" fill="#4b4a46"/>
<circle cx="357.3" cy="516.8" r="2.4" fill="#4b4a46"/>
<circle cx="361.1" cy="522.2" r="2.4" fill="#4b4a46"/>
<circle cx="361.3" cy="511.4" r="2.4" fill="#4b4a46"/>
<circle cx="361.6" cy="506.0" r="2.4" fill="#4b4a46"/>
<circle cx="361.7" cy="500.6" r="2.4" fill="#4b4a46"/>
<circle cx="363.6" cy="527.6" r="2.4" fill="#4b4a46"/>
<circle cx="364.0" cy="516.8" r="2.4" fill="#4b4a46"/>
<circle cx="364.3" cy="495.2" r="2.4" fill="#4b4a46"/>
<circle cx="364.5" cy="489.8" r="2.4" fill="#4b4a46"/>
<circle cx="365.1" cy="484.4" r="2.4" fill="#4b4a46"/>
<circle cx="365.4" cy="479.0" r="2.4" fill="#4b4a46"/>
<circle cx="367.7" cy="522.2" r="2.4" fill="#4b4a46"/>
<circle cx="367.8" cy="511.4" r="2.4" fill="#4b4a46"/>
<circle cx="368.0" cy="506.0" r="2.4" fill="#4b4a46"/>
<circle cx="369.8" cy="527.6" r="2.4" fill="#4b4a46"/>
<circle cx="370.3" cy="516.8" r="2.4" fill="#4b4a46"/>
<circle cx="372.3" cy="500.6" r="2.4" fill="#4b4a46"/>
<circle cx="374.6" cy="522.2" r="2.4" fill="#4b4a46"/>
<circle cx="376.7" cy="527.6" r="2.4" fill="#4b4a46"/>
<circle cx="377.0" cy="516.8" r="2.4" fill="#4b4a46"/>
<circle cx="377.4" cy="511.4" r="2.4" fill="#4b4a46"/>
<circle cx="378.2" cy="506.0" r="2.4" fill="#4b4a46"/>
<circle cx="378.8" cy="500.6" r="2.4" fill="#4b4a46"/>
<circle cx="380.0" cy="495.2" r="2.4" fill="#4b4a46"/>
<circle cx="381.8" cy="522.2" r="2.4" fill="#4b4a46"/>
<circle cx="382.0" cy="489.8" r="2.4" fill="#4b4a46"/>
<circle cx="382.3" cy="527.6" r="2.4" fill="#4b4a46"/>
<circle cx="382.7" cy="516.8" r="2.4" fill="#4b4a46"/>
<circle cx="383.1" cy="511.4" r="2.4" fill="#4b4a46"/>
<circle cx="383.1" cy="484.4" r="2.4" fill="#4b4a46"/>
<circle cx="384.1" cy="506.0" r="2.4" fill="#4b4a46"/>
<circle cx="385.1" cy="500.6" r="2.4" fill="#4b4a46"/>
<circle cx="387.0" cy="495.2" r="2.4" fill="#4b4a46"/>
<circle cx="387.0" cy="479.0" r="2.4" fill="#4b4a46"/>
<circle cx="388.4" cy="527.6" r="2.4" fill="#4b4a46"/>
<circle cx="389.2" cy="522.2" r="2.4" fill="#4b4a46"/>
<circle cx="390.3" cy="516.8" r="2.4" fill="#4b4a46"/>
<circle cx="390.3" cy="511.4" r="2.4" fill="#4b4a46"/>
<circle cx="390.5" cy="506.0" r="2.4" fill="#4b4a46"/>
<circle cx="390.6" cy="500.6" r="2.4" fill="#4b4a46"/>
<circle cx="393.6" cy="495.2" r="2.4" fill="#4b4a46"/>
<circle cx="394.6" cy="527.6" r="2.4" fill="#4b4a46"/>
<circle cx="395.8" cy="522.2" r="2.4" fill="#4b4a46"/>
<circle cx="396.3" cy="516.8" r="2.4" fill="#4b4a46"/>
<circle cx="396.8" cy="511.4" r="2.4" fill="#4b4a46"/>
<circle cx="398.8" cy="506.0" r="2.4" fill="#4b4a46"/>
<circle cx="399.0" cy="500.6" r="2.4" fill="#4b4a46"/>
<circle cx="399.9" cy="495.2" r="2.4" fill="#4b4a46"/>
<circle cx="401.7" cy="527.6" r="2.4" fill="#4b4a46"/>
<circle cx="402.0" cy="522.2" r="2.4" fill="#4b4a46"/>
<circle cx="402.4" cy="516.8" r="2.4" fill="#4b4a46"/>
<circle cx="403.6" cy="511.4" r="2.4" fill="#4b4a46"/>
<circle cx="404.2" cy="506.0" r="2.4" fill="#4b4a46"/>
<circle cx="405.1" cy="500.6" r="2.4" fill="#4b4a46"/>
<circle cx="405.5" cy="495.2" r="2.4" fill="#4b4a46"/>
<circle cx="407.7" cy="527.6" r="2.4" fill="#4b4a46"/>
<circle cx="407.9" cy="522.2" r="2.4" fill="#4b4a46"/>
<circle cx="408.8" cy="516.8" r="2.4" fill="#4b4a46"/>
<circle cx="408.9" cy="489.8" r="2.4" fill="#4b4a46"/>
<circle cx="409.4" cy="511.4" r="2.4" fill="#4b4a46"/>
<circle cx="410.4" cy="506.0" r="2.4" fill="#4b4a46"/>
<circle cx="410.5" cy="500.6" r="2.4" fill="#4b4a46"/>
<circle cx="411.0" cy="495.2" r="2.4" fill="#4b4a46"/>
<circle cx="411.7" cy="484.4" r="2.4" fill="#4b4a46"/>
<circle cx="414.0" cy="527.6" r="2.4" fill="#4b4a46"/>
<circle cx="414.2" cy="522.2" r="2.4" fill="#4b4a46"/>
<circle cx="414.6" cy="516.8" r="2.4" fill="#4b4a46"/>
<circle cx="415.1" cy="511.4" r="2.4" fill="#4b4a46"/>
<circle cx="415.7" cy="489.8" r="2.4" fill="#4b4a46"/>
<circle cx="416.0" cy="506.0" r="2.4" fill="#4b4a46"/>
<circle cx="416.8" cy="500.6" r="2.4" fill="#4b4a46"/>
<circle cx="419.4" cy="495.2" r="2.4" fill="#4b4a46"/>
<circle cx="419.6" cy="527.6" r="2.4" fill="#4b4a46"/>
<circle cx="421.2" cy="522.2" r="2.4" fill="#4b4a46"/>
<circle cx="425.4" cy="527.6" r="2.4" fill="#4b4a46"/>
<circle cx="427.2" cy="522.2" r="2.4" fill="#4b4a46"/>
<circle cx="427.3" cy="516.8" r="2.4" fill="#4b4a46"/>
<circle cx="427.7" cy="511.4" r="2.4" fill="#4b4a46"/>
<circle cx="428.1" cy="506.0" r="2.4" fill="#4b4a46"/>
<circle cx="429.0" cy="500.6" r="2.4" fill="#4b4a46"/>
<circle cx="429.7" cy="495.2" r="2.4" fill="#4b4a46"/>
<circle cx="429.8" cy="489.8" r="2.4" fill="#4b4a46"/>
<circle cx="430.1" cy="484.4" r="2.4" fill="#4b4a46"/>
<circle cx="430.3" cy="479.0" r="2.4" fill="#4b4a46"/>
<circle cx="430.3" cy="473.6" r="2.4" fill="#4b4a46"/>
<circle cx="434.2" cy="527.6" r="2.4" fill="#4b4a46"/>
<circle cx="434.3" cy="522.2" r="2.4" fill="#4b4a46"/>
<circle cx="436.5" cy="516.8" r="2.4" fill="#4b4a46"/>
<circle cx="438.4" cy="511.4" r="2.4" fill="#4b4a46"/>
<circle cx="438.8" cy="506.0" r="2.4" fill="#4b4a46"/>
<circle cx="439.9" cy="527.6" r="2.4" fill="#4b4a46"/>
<circle cx="440.9" cy="522.2" r="2.4" fill="#4b4a46"/>
<circle cx="443.4" cy="516.8" r="2.4" fill="#4b4a46"/>
<circle cx="444.0" cy="511.4" r="2.4" fill="#4b4a46"/>
<circle cx="447.0" cy="527.6" r="2.4" fill="#4b4a46"/>
<circle cx="451.7" cy="522.2" r="2.4" fill="#4b4a46"/>
<circle cx="452.6" cy="527.6" r="2.4" fill="#4b4a46"/>
<circle cx="452.7" cy="516.8" r="2.4" fill="#4b4a46"/>
<circle cx="453.1" cy="511.4" r="2.4" fill="#4b4a46"/>
<circle cx="453.8" cy="506.0" r="2.4" fill="#4b4a46"/>
<circle cx="455.4" cy="500.6" r="2.4" fill="#4b4a46"/>
<circle cx="457.7" cy="522.2" r="2.4" fill="#4b4a46"/>
<circle cx="458.2" cy="527.6" r="2.4" fill="#4b4a46"/>
<circle cx="459.3" cy="516.8" r="2.4" fill="#4b4a46"/>
<circle cx="461.6" cy="511.4" r="2.4" fill="#4b4a46"/>
<circle cx="462.9" cy="506.0" r="2.4" fill="#4b4a46"/>
<circle cx="463.1" cy="522.2" r="2.4" fill="#4b4a46"/>
<circle cx="464.8" cy="527.6" r="2.4" fill="#4b4a46"/>
<circle cx="466.0" cy="516.8" r="2.4" fill="#4b4a46"/>
<circle cx="466.7" cy="500.6" r="2.4" fill="#4b4a46"/>
<circle cx="467.0" cy="511.4" r="2.4" fill="#4b4a46"/>
<circle cx="467.5" cy="495.2" r="2.4" fill="#4b4a46"/>
<circle cx="467.8" cy="489.8" r="2.4" fill="#4b4a46"/>
<circle cx="468.6" cy="522.2" r="2.4" fill="#4b4a46"/>
<circle cx="470.1" cy="506.0" r="2.4" fill="#4b4a46"/>
<circle cx="471.3" cy="527.6" r="2.4" fill="#4b4a46"/>
<circle cx="472.2" cy="516.8" r="2.4" fill="#4b4a46"/>
<circle cx="473.6" cy="511.4" r="2.4" fill="#4b4a46"/>
<circle cx="474.7" cy="522.2" r="2.4" fill="#4b4a46"/>
<circle cx="474.7" cy="500.6" r="2.4" fill="#4b4a46"/>
<circle cx="475.3" cy="495.2" r="2.4" fill="#4b4a46"/>
<circle cx="475.9" cy="506.0" r="2.4" fill="#4b4a46"/>
<circle cx="476.5" cy="489.8" r="2.4" fill="#4b4a46"/>
<circle cx="478.0" cy="527.6" r="2.4" fill="#4b4a46"/>
<circle cx="478.4" cy="516.8" r="2.4" fill="#4b4a46"/>
<circle cx="478.5" cy="484.4" r="2.4" fill="#4b4a46"/>
<circle cx="478.7" cy="479.0" r="2.4" fill="#4b4a46"/>
<circle cx="479.5" cy="511.4" r="2.4" fill="#4b4a46"/>
<circle cx="485.5" cy="527.6" r="2.4" fill="#4b4a46"/>
<circle cx="489.1" cy="522.2" r="2.4" fill="#4b4a46"/>
<circle cx="489.9" cy="516.8" r="2.4" fill="#4b4a46"/>
<circle cx="490.1" cy="511.4" r="2.4" fill="#4b4a46"/>
<circle cx="490.3" cy="506.0" r="2.4" fill="#4b4a46"/>
<circle cx="490.9" cy="527.6" r="2.4" fill="#4b4a46"/>
<circle cx="491.2" cy="500.6" r="2.4" fill="#4b4a46"/>
<circle cx="493.2" cy="495.2" r="2.4" fill="#4b4a46"/>
<circle cx="494.2" cy="489.8" r="2.4" fill="#4b4a46"/>
<circle cx="494.7" cy="522.2" r="2.4" fill="#4b4a46"/>
<circle cx="495.0" cy="484.4" r="2.4" fill="#4b4a46"/>
<circle cx="495.6" cy="516.8" r="2.4" fill="#4b4a46"/>
<circle cx="496.8" cy="527.6" r="2.4" fill="#4b4a46"/>
<circle cx="496.9" cy="511.4" r="2.4" fill="#4b4a46"/>
<circle cx="498.5" cy="506.0" r="2.4" fill="#4b4a46"/>
<circle cx="498.9" cy="500.6" r="2.4" fill="#4b4a46"/>
<circle cx="499.4" cy="495.2" r="2.4" fill="#4b4a46"/>
<circle cx="500.0" cy="489.8" r="2.4" fill="#4b4a46"/>
<circle cx="500.2" cy="522.2" r="2.4" fill="#4b4a46"/>
<circle cx="505.8" cy="527.6" r="2.4" fill="#4b4a46"/>
<circle cx="506.5" cy="522.2" r="2.4" fill="#4b4a46"/>
<circle cx="507.7" cy="516.8" r="2.4" fill="#4b4a46"/>
<circle cx="508.6" cy="511.4" r="2.4" fill="#4b4a46"/>
<circle cx="511.4" cy="527.6" r="2.4" fill="#4b4a46"/>
<circle cx="511.9" cy="522.2" r="2.4" fill="#4b4a46"/>
<circle cx="512.6" cy="506.0" r="2.4" fill="#4b4a46"/>
<circle cx="512.7" cy="500.6" r="2.4" fill="#4b4a46"/>
<circle cx="516.1" cy="516.8" r="2.4" fill="#4b4a46"/>
<circle cx="521.8" cy="527.6" r="2.4" fill="#4b4a46"/>
<circle cx="522.0" cy="522.2" r="2.4" fill="#4b4a46"/>
<circle cx="523.4" cy="516.8" r="2.4" fill="#4b4a46"/>
<circle cx="523.9" cy="511.4" r="2.4" fill="#4b4a46"/>
<circle cx="524.6" cy="506.0" r="2.4" fill="#4b4a46"/>
<circle cx="525.1" cy="500.6" r="2.4" fill="#4b4a46"/>
<circle cx="528.2" cy="527.6" r="2.4" fill="#4b4a46"/>
<circle cx="528.7" cy="522.2" r="2.4" fill="#4b4a46"/>
<circle cx="531.1" cy="516.8" r="2.4" fill="#4b4a46"/>
<circle cx="531.7" cy="511.4" r="2.4" fill="#4b4a46"/>
<circle cx="531.7" cy="506.0" r="2.4" fill="#4b4a46"/>
<circle cx="532.7" cy="500.6" r="2.4" fill="#4b4a46"/>
<circle cx="533.0" cy="495.2" r="2.4" fill="#4b4a46"/>
<circle cx="537.4" cy="527.6" r="2.4" fill="#4b4a46"/>
<circle cx="537.9" cy="522.2" r="2.4" fill="#4b4a46"/>
<circle cx="538.9" cy="516.8" r="2.4" fill="#4b4a46"/>
<circle cx="540.4" cy="511.4" r="2.4" fill="#4b4a46"/>
<circle cx="541.2" cy="506.0" r="2.4" fill="#4b4a46"/>
<circle cx="541.7" cy="500.6" r="2.4" fill="#4b4a46"/>
<circle cx="542.3" cy="495.2" r="2.4" fill="#4b4a46"/>
<circle cx="543.5" cy="527.6" r="2.4" fill="#4b4a46"/>
<circle cx="544.1" cy="522.2" r="2.4" fill="#4b4a46"/>
<circle cx="546.5" cy="516.8" r="2.4" fill="#4b4a46"/>
<circle cx="547.5" cy="511.4" r="2.4" fill="#4b4a46"/>
<circle cx="547.9" cy="506.0" r="2.4" fill="#4b4a46"/>
<circle cx="551.0" cy="527.6" r="2.4" fill="#4b4a46"/>
<circle cx="551.4" cy="522.2" r="2.4" fill="#4b4a46"/>
<circle cx="552.1" cy="516.8" r="2.4" fill="#4b4a46"/>
<circle cx="552.7" cy="500.6" r="2.4" fill="#4b4a46"/>
<circle cx="554.1" cy="511.4" r="2.4" fill="#4b4a46"/>
<circle cx="555.2" cy="506.0" r="2.4" fill="#3fb8a5"/>
<circle cx="556.3" cy="495.2" r="2.4" fill="#3fb8a5"/>
<circle cx="557.5" cy="527.6" r="2.4" fill="#3fb8a5"/>
<circle cx="557.8" cy="522.2" r="2.4" fill="#3fb8a5"/>
<circle cx="558.9" cy="516.8" r="2.4" fill="#3fb8a5"/>
<circle cx="562.6" cy="511.4" r="2.4" fill="#3fb8a5"/>
<circle cx="563.3" cy="527.6" r="2.4" fill="#3fb8a5"/>
<circle cx="563.5" cy="522.2" r="2.4" fill="#3fb8a5"/>
<circle cx="564.1" cy="506.0" r="2.4" fill="#3fb8a5"/>
<circle cx="564.5" cy="516.8" r="2.4" fill="#3fb8a5"/>
<circle cx="565.0" cy="500.6" r="2.4" fill="#3fb8a5"/>
<circle cx="565.7" cy="495.2" r="2.4" fill="#3fb8a5"/>
<circle cx="566.2" cy="489.8" r="2.4" fill="#3fb8a5"/>
<circle cx="567.4" cy="484.4" r="2.4" fill="#3fb8a5"/>
<circle cx="568.8" cy="527.6" r="2.4" fill="#3fb8a5"/>
<circle cx="570.9" cy="522.2" r="2.4" fill="#3fb8a5"/>
<circle cx="572.4" cy="516.8" r="2.4" fill="#3fb8a5"/>
<circle cx="575.3" cy="527.6" r="2.4" fill="#3fb8a5"/>
<circle cx="576.2" cy="511.4" r="2.4" fill="#3fb8a5"/>
<circle cx="576.9" cy="522.2" r="2.4" fill="#3fb8a5"/>
<circle cx="577.0" cy="506.0" r="2.4" fill="#3fb8a5"/>
<circle cx="580.4" cy="516.8" r="2.4" fill="#3fb8a5"/>
<circle cx="583.2" cy="527.6" r="2.4" fill="#3fb8a5"/>
<circle cx="583.2" cy="522.2" r="2.4" fill="#3fb8a5"/>
<circle cx="584.0" cy="511.4" r="2.4" fill="#3fb8a5"/>
<circle cx="584.7" cy="506.0" r="2.4" fill="#3fb8a5"/>
<circle cx="585.6" cy="500.6" r="2.4" fill="#3fb8a5"/>
<circle cx="586.8" cy="516.8" r="2.4" fill="#3fb8a5"/>
<circle cx="586.9" cy="495.2" r="2.4" fill="#3fb8a5"/>
<circle cx="587.0" cy="489.8" r="2.4" fill="#3fb8a5"/>
<circle cx="588.8" cy="527.6" r="2.4" fill="#3fb8a5"/>
<circle cx="590.8" cy="522.2" r="2.4" fill="#3fb8a5"/>
<circle cx="591.9" cy="511.4" r="2.4" fill="#3fb8a5"/>
<circle cx="592.5" cy="516.8" r="2.4" fill="#3fb8a5"/>
<circle cx="593.3" cy="506.0" r="2.4" fill="#3fb8a5"/>
<circle cx="594.3" cy="527.6" r="2.4" fill="#3fb8a5"/>
<circle cx="596.2" cy="522.2" r="2.4" fill="#3fb8a5"/>
<circle cx="598.3" cy="516.8" r="2.4" fill="#3fb8a5"/>
<circle cx="605.9" cy="527.6" r="2.4" fill="#3fb8a5"/>
<circle cx="606.7" cy="522.2" r="2.4" fill="#3fb8a5"/>
<circle cx="607.2" cy="516.8" r="2.4" fill="#3fb8a5"/>
<circle cx="613.1" cy="527.6" r="2.4" fill="#3fb8a5"/>
<circle cx="613.4" cy="522.2" r="2.4" fill="#3fb8a5"/>
<circle cx="614.0" cy="516.8" r="2.4" fill="#3fb8a5"/>
<circle cx="616.7" cy="511.4" r="2.4" fill="#3fb8a5"/>
<circle cx="617.4" cy="506.0" r="2.4" fill="#3fb8a5"/>
<circle cx="619.2" cy="527.6" r="2.4" fill="#3fb8a5"/>
<circle cx="620.5" cy="522.2" r="2.4" fill="#3fb8a5"/>
<circle cx="622.0" cy="516.8" r="2.4" fill="#3fb8a5"/>
<circle cx="623.9" cy="511.4" r="2.4" fill="#3fb8a5"/>
<circle cx="624.6" cy="527.6" r="2.4" fill="#3fb8a5"/>
<circle cx="626.4" cy="522.2" r="2.4" fill="#3fb8a5"/>
<circle cx="627.7" cy="516.8" r="2.4" fill="#3fb8a5"/>
<circle cx="629.6" cy="511.4" r="2.4" fill="#3fb8a5"/>
<circle cx="629.9" cy="506.0" r="2.4" fill="#3fb8a5"/>
<circle cx="643.1" cy="527.6" r="2.4" fill="#3fb8a5"/>
<circle cx="646.9" cy="522.2" r="2.4" fill="#3fb8a5"/>
<circle cx="648.4" cy="516.8" r="2.4" fill="#3fb8a5"/>
<circle cx="650.8" cy="527.6" r="2.4" fill="#3fb8a5"/>
<circle cx="653.7" cy="522.2" r="2.4" fill="#3fb8a5"/>
<circle cx="656.4" cy="527.6" r="2.4" fill="#3fb8a5"/>
<circle cx="664.0" cy="527.6" r="2.4" fill="#3fb8a5"/>
<circle cx="665.0" cy="522.2" r="2.4" fill="#3fb8a5"/>
<circle cx="668.4" cy="516.8" r="2.4" fill="#3fb8a5"/>
<circle cx="670.2" cy="527.6" r="2.4" fill="#3fb8a5"/>
<circle cx="670.4" cy="511.4" r="2.4" fill="#3fb8a5"/>
<circle cx="673.1" cy="522.2" r="2.4" fill="#3fb8a5"/>
<circle cx="675.6" cy="516.8" r="2.4" fill="#3fb8a5"/>
<circle cx="678.4" cy="527.6" r="2.4" fill="#3fb8a5"/>
<circle cx="680.8" cy="522.2" r="2.4" fill="#3fb8a5"/>
<circle cx="683.1" cy="516.8" r="2.4" fill="#3fb8a5"/>
<circle cx="683.2" cy="511.4" r="2.4" fill="#3fb8a5"/>
<circle cx="694.7" cy="527.6" r="2.4" fill="#3fb8a5"/>
<circle cx="696.3" cy="522.2" r="2.4" fill="#3fb8a5"/>
<circle cx="703.6" cy="527.6" r="2.4" fill="#3fb8a5"/>
<circle cx="704.8" cy="522.2" r="2.4" fill="#3fb8a5"/>
<circle cx="709.0" cy="516.8" r="2.4" fill="#3fb8a5"/>
<circle cx="709.2" cy="527.6" r="2.4" fill="#3fb8a5"/>
<circle cx="713.2" cy="522.2" r="2.4" fill="#3fb8a5"/>
<circle cx="716.0" cy="527.6" r="2.4" fill="#3fb8a5"/>
<circle cx="720.5" cy="522.2" r="2.4" fill="#3fb8a5"/>
<circle cx="729.9" cy="527.6" r="2.4" fill="#3fb8a5"/>
<circle cx="731.0" cy="522.2" r="2.4" fill="#3fb8a5"/>
<circle cx="731.4" cy="516.8" r="2.4" fill="#3fb8a5"/>
<circle cx="732.1" cy="511.4" r="2.4" fill="#3fb8a5"/>
<circle cx="734.4" cy="506.0" r="2.4" fill="#3fb8a5"/>
<circle cx="744.5" cy="527.6" r="2.4" fill="#3fb8a5"/>
<circle cx="772.2" cy="527.6" r="2.4" fill="#3fb8a5"/>
<circle cx="774.5" cy="522.2" r="2.4" fill="#3fb8a5"/>
<circle cx="775.3" cy="516.8" r="2.4" fill="#3fb8a5"/>
<circle cx="782.3" cy="527.6" r="2.4" fill="#3fb8a5"/>
<circle cx="807.0" cy="527.6" r="2.4" fill="#3fb8a5"/>
<circle cx="1013.2" cy="527.6" r="2.4" fill="#3fb8a5"/>
<text x="1060.0" y="360.0" font-family="'IBM Plex Sans', ui-sans-serif, system-ui, -apple-system, sans-serif" font-size="13" font-weight="600" fill="#3fb8a5" text-anchor="end">93 of 317 at ten years or more</text>
</svg>
